# xmcd
#
# Track frame offsets:
#       182
#       14165
#       30642
#       49677
#       68385
#       93477
#       110747
#       132037
#       142055
#       158085
#       175955
#       193127
#
# Disc length: 2916 seconds
#
# Revision: 3
# Processed by: cddbd v1.5.2PL0 Copyright (c) Steve Scherf et al.
# Submitted via: FreeDbEdit v0.1
#
DISCID=a70b620c
DTITLE=TV in Flames - Drool
DYEAR=1900
DGENRE=
TTITLE0=All Through the Night
TTITLE1=Whiskey and Women
TTITLE2=Pocket Full of Change
TTITLE3=No Lookin' Back
TTITLE4=Love in Motion
TTITLE5=Big Red Train
TTITLE6=French Kiss
TTITLE7=Drool
TTITLE8=Give It Up
TTITLE9=Jiggle Bones
TTITLE10=Sin City
TTITLE11=Who's Sleepin' Outside My Door
EXTD=
EXTT0=
EXTT1=
EXTT2=
EXTT3=
EXTT4=
EXTT5=
EXTT6=
EXTT7=
EXTT8=
EXTT9=
EXTT10=
EXTT11=
PLAYORDER=
